<svg xmlns="http://www.w3.org/2000/svg" width="47.16" height="28.8" viewBox="0 0 47.16 28.8">
  <path id="Path_16" data-name="Path 16" d="M10.88-6.72h8.56V0H2V-28.32h8.88ZM35.44-28.6a15.13,15.13,0,0,1,6.58,1.38,12.159,12.159,0,0,1,4.72,3.9,14.135,14.135,0,0,1,2.42,5.88H39.8a5.066,5.066,0,0,0-1.82-2.18,4.784,4.784,0,0,0-2.7-.78,4.236,4.236,0,0,0-3.54,1.68,7.2,7.2,0,0,0-1.3,4.52,7.2,7.2,0,0,0,1.3,4.52A4.236,4.236,0,0,0,35.28-8a4.784,4.784,0,0,0,2.7-.78,5.066,5.066,0,0,0,1.82-2.18h9.36a14.135,14.135,0,0,1-2.42,5.88,12.159,12.159,0,0,1-4.72,3.9A15.13,15.13,0,0,1,35.44.2,14.65,14.65,0,0,1,28-1.62a12.28,12.28,0,0,1-4.86-5.1,16.019,16.019,0,0,1-1.7-7.48,16.019,16.019,0,0,1,1.7-7.48A12.28,12.28,0,0,1,28-26.78,14.65,14.65,0,0,1,35.44-28.6Z" transform="translate(-2 28.6)"/>
</svg>
