<svg xmlns="http://www.w3.org/2000/svg" width="45" height="45" viewBox="0 0 45 45">
  <path id="Icon_awesome-bootstrap" data-name="Icon awesome-bootstrap" d="M29.36,30.368c0,4.26-3.99,4.161-4.412,4.161H16.824V26.324h8.125c4.275,0,4.412,3.2,4.412,4.044Zm-5.037-7.346c.067,0,3.861.1,3.861-3.647,0-1.559-.353-3.6-3.861-3.6h-7.5v7.25ZM45,9.75v30a7.522,7.522,0,0,1-7.5,7.5H7.5A7.522,7.522,0,0,1,0,39.75v-30a7.522,7.522,0,0,1,7.5-7.5h30A7.522,7.522,0,0,1,45,9.75ZM33.956,30.964c0-2.167-.668-5.855-4.927-6.765v-.073a5.755,5.755,0,0,0,3.751-5.589c0-.7.2-6.507-7.795-6.507H12.228v26.25c12.88,0,14.049.169,16.433-.574,1.427-.444,5.295-1.806,5.295-6.742Z" transform="translate(0 -2.25)" fill="#d2ded2"/>
</svg>
