<svg xmlns="http://www.w3.org/2000/svg" width="34.929" height="45" viewBox="0 0 34.929 45">
  <path id="Icon_simple-django" data-name="Icon simple-django" d="M19.892,0H27.25V34.061a48.563,48.563,0,0,1-9.555,1C8.711,35.064,4.029,31,4.029,23.213c0-7.5,4.969-12.376,12.662-12.376a11.747,11.747,0,0,1,3.2.383Zm0,17.144a7.3,7.3,0,0,0-2.484-.383c-3.728,0-5.876,2.293-5.876,6.308,0,3.919,2.055,6.068,5.83,6.068a16.977,16.977,0,0,0,2.531-.191v-11.8Zm19.066-5.781V28.421c0,5.876-.429,8.7-1.719,11.132-1.194,2.342-2.771,3.823-6.021,5.447l-6.833-3.25c3.25-1.528,4.826-2.867,5.83-4.922,1.052-2.1,1.386-4.54,1.386-10.941V11.361h7.358ZM31.6.039h7.358V7.588H31.6Z" transform="translate(-4.029)" fill="#d2ded2"/>
</svg>
