<svg xmlns="http://www.w3.org/2000/svg" width="31.5" height="24.75" viewBox="0 0 31.5 24.75">
  <g id="Icon_ionic-logo-javascript" data-name="Icon ionic-logo-javascript" transform="translate(24.75 -2.25)">
    <path id="Path_116" data-name="Path 116" d="M-12.375,2.813H-18V17.754c0,3.7-1.268,4.729-3.474,4.729a8.4,8.4,0,0,1-2.689-.426l-.586,4.374A13.337,13.337,0,0,0-20.889,27c5.066,0,8.514-2.382,8.514-9.21V2.813Z" fill="#d2ded2"/>
    <path id="Path_117" data-name="Path 117" d="M-.108,2.25C-5.553,2.25-9,5.344-9,9.433c0,3.521,2.654,5.726,6.514,7.148,2.791,1,3.895,1.885,3.895,3.343,0,1.6-1.275,2.631-3.688,2.631a12.2,12.2,0,0,1-5.653-1.494h0L-9,25.5A13.943,13.943,0,0,0-2.59,27c6.376,0,9.34-3.414,9.34-7.432,0-3.414-1.9-5.618-6-7.183C-2.279,11.175-3.554,10.5-3.554,8.97c0-1.209,1.1-2.311,3.378-2.311A9.728,9.728,0,0,1,4.5,7.875l1.345-4.5A14.484,14.484,0,0,0-.108,2.25Z" fill="#d2ded2"/>
  </g>
</svg>
