<svg xmlns="http://www.w3.org/2000/svg" width="45.277" height="45" viewBox="0 0 45.277 45">
  <path id="Icon_simple-ruby" data-name="Icon simple-ruby" d="M38.025.128c5.722.99,7.344,4.9,7.224,9l.028-.058L42.7,42.815,9.225,45.11h.03C6.477,44.993.283,44.738,0,36.079l3.1-5.66L8.422,42.844l.949,2.211L14.662,27.8l-.057.013.03-.057L32.1,33.337,29.462,23.092l-1.868-7.358,16.639-1.073-1.16-.962L31.128,3.96l6.9-3.85ZM0,35.984v0ZM9.678,9.542C16.4,2.877,25.067-1.062,28.4,2.3s-.2,11.517-6.929,18.179S6.18,31.294,2.858,27.942,2.943,16.213,9.672,9.548l.006-.006Z" transform="translate(0 -0.109)" fill="#d2ded2"/>
</svg>
