<svg xmlns="http://www.w3.org/2000/svg" width="51.426" height="45" viewBox="0 0 51.426 45">
  <path id="Icon_awesome-react" data-name="Icon awesome-react" d="M42,16.834q-.814-.271-1.627-.512c.09-.372.171-.743.251-1.115,1.235-5.986.422-10.8-2.32-12.384-2.642-1.517-6.951.06-11.31,3.857-.432.372-.854.763-1.256,1.155-.271-.261-.552-.522-.834-.773C20.339,3,15.759,1.3,13.017,2.892,10.386,4.419,9.6,8.949,10.707,14.614c.11.562.231,1.115.372,1.677-.643.181-1.276.382-1.868.593C3.847,18.742,0,21.675,0,24.708c0,3.134,4.1,6.278,9.672,8.186.452.151.9.3,1.366.432-.151.6-.281,1.2-.4,1.808-1.055,5.574-.231,9.994,2.4,11.511,2.712,1.567,7.272-.04,11.711-3.927.352-.311.7-.633,1.055-.974.442.432.9.844,1.366,1.245,4.3,3.7,8.548,5.193,11.169,3.676,2.712-1.567,3.6-6.318,2.451-12.1q-.136-.663-.3-1.356c.321-.09.633-.191.944-.291,5.8-1.918,9.994-5.022,9.994-8.206C51.426,21.665,47.468,18.712,42,16.834ZM28.415,8.306c3.736-3.254,7.222-4.53,8.809-3.616,1.7.974,2.35,4.912,1.286,10.084-.07.341-.141.673-.231,1a51.418,51.418,0,0,0-6.76-1.065A50.747,50.747,0,0,0,27.24,9.381c.392-.372.773-.723,1.175-1.075ZM16.794,29.921c.512.874,1.035,1.748,1.587,2.6a45.482,45.482,0,0,1-4.66-.753,46.92,46.92,0,0,1,1.637-4.47c.462.884.934,1.758,1.436,2.622ZM13.75,17.838c1.446-.321,2.983-.583,4.58-.783-.532.834-1.055,1.687-1.547,2.551s-.974,1.728-1.426,2.611C14.725,20.721,14.192,19.254,13.75,17.838Zm2.752,6.92c.663-1.386,1.386-2.742,2.149-4.078s1.587-2.632,2.451-3.907c1.507-.11,3.043-.171,4.61-.171s3.114.06,4.61.171q1.281,1.9,2.441,3.887t2.18,4.058q-1.009,2.079-2.17,4.1c-.763,1.336-1.577,2.632-2.431,3.917-1.5.11-3.053.161-4.63.161s-3.1-.05-4.58-.141q-1.311-1.913-2.471-3.917C17.889,27.5,17.175,26.145,16.5,24.758ZM34.642,29.9c.512-.884.994-1.778,1.466-2.682a46.626,46.626,0,0,1,1.7,4.45,44.118,44.118,0,0,1-4.721.8C33.628,31.629,34.14,30.765,34.642,29.9Zm1.446-7.684c-.472-.884-.954-1.768-1.456-2.632s-1-1.7-1.537-2.531a46.22,46.22,0,0,1,4.61.8A44.45,44.45,0,0,1,36.088,22.217Zm-10.355-11.3a44.105,44.105,0,0,1,2.973,3.6c-1.989-.09-3.988-.09-5.976,0C23.714,13.218,24.729,12.012,25.733,10.918ZM14.082,4.761c1.687-.984,5.434.422,9.381,3.917.251.221.5.462.763.7a51.029,51.029,0,0,0-4.309,5.333,52.945,52.945,0,0,0-6.75,1.045c-.131-.512-.241-1.035-.352-1.557-.944-4.861-.321-8.527,1.266-9.441ZM11.621,31.237c-.422-.121-.834-.251-1.245-.392a20.485,20.485,0,0,1-6.328-3.134,4.507,4.507,0,0,1-1.888-3c0-1.838,3.174-4.188,7.754-5.785.573-.2,1.155-.382,1.738-.552a53.409,53.409,0,0,0,2.461,6.388A54.9,54.9,0,0,0,11.621,31.237ZM23.332,41.08a18.384,18.384,0,0,1-5.665,3.546,4.446,4.446,0,0,1-3.546.131c-1.6-.924-2.26-4.47-1.356-9.241.11-.562.231-1.125.372-1.677a50.249,50.249,0,0,0,6.82.984A53.006,53.006,0,0,0,24.3,40.186C23.975,40.5,23.654,40.8,23.332,41.08Zm2.461-2.441c-1.024-1.1-2.049-2.33-3.043-3.646.964.04,1.959.06,2.963.06,1.035,0,2.049-.02,3.053-.07A43.315,43.315,0,0,1,25.793,38.639Zm13.128,3.013A4.464,4.464,0,0,1,37.264,44.8c-1.6.924-5-.281-8.678-3.435-.422-.362-.844-.753-1.276-1.155a49.687,49.687,0,0,0,4.239-5.384,49.514,49.514,0,0,0,6.85-1.055c.1.412.191.824.271,1.225a18.31,18.31,0,0,1,.251,6.659Zm1.828-10.8c-.281.09-.562.181-.854.261a51.024,51.024,0,0,0-2.561-6.408,50.77,50.77,0,0,0,2.461-6.318c.522.151,1.025.311,1.507.472,4.681,1.607,7.965,4,7.965,5.826,0,1.969-3.505,4.51-8.517,6.167ZM25.713,29.349a4.6,4.6,0,1,0-4.6-4.6A4.6,4.6,0,0,0,25.713,29.349Z" transform="translate(0 -2.251)" fill="#d2ded2"/>
</svg>
