<svg xmlns="http://www.w3.org/2000/svg" width="36.863" height="50" viewBox="0 0 36.863 50">
  <path id="Icon_awesome-java" data-name="Icon awesome-java" d="M27.042,30.556a15.786,15.786,0,0,1,2.285-1.221s-3.779.684-7.539,1a68.679,68.679,0,0,1-12.021.127c-5.869-.781,3.223-2.939,3.223-2.939a17.3,17.3,0,0,0-7.871,1.855C-.009,31.855,17.813,32.988,27.042,30.556ZM18.7,27.422c-1.855-4.17-8.115-7.832,0-14.238C28.825,5.2,23.634,0,23.634,0c2.1,8.252-7.383,10.752-10.81,15.879-2.334,3.506,1.143,7.266,5.879,11.543ZM29.893,10.215c.01,0-17.109,4.277-8.935,13.691,2.412,2.773-.635,5.273-.635,5.273s6.123-3.164,3.311-7.119c-2.627-3.691-4.639-5.527,6.26-11.846ZM29.3,36.63a1.19,1.19,0,0,1-.2.254c12.529-3.291,7.92-11.611,1.934-9.5a1.692,1.692,0,0,0-.8.615,6.88,6.88,0,0,1,1.074-.293c3.027-.635,7.373,4.053-2.012,8.926ZM33.9,42.714s1.416,1.162-1.553,2.07c-5.654,1.709-23.515,2.227-28.476.068C2.087,44.081,5.437,43,6.491,42.773a7.085,7.085,0,0,1,1.728-.2C6.237,41.181-4.6,45.322,2.712,46.5,22.657,49.745,39.079,45.048,33.9,42.714ZM12.071,38.671c-7.685,2.148,4.678,6.582,14.463,2.393a18.154,18.154,0,0,1-2.754-1.348,28.579,28.579,0,0,1-10.351.439c-3.271-.371-1.357-1.484-1.357-1.484ZM29.63,48.163a74.02,74.02,0,0,1-22.783.352c0-.01,1.152.947,7.07,1.328,9,.576,22.832-.322,23.154-4.58,0,0-.625,1.611-7.441,2.9ZM25.372,34.472a40.342,40.342,0,0,1-13.359.645c-3.271-.342-1.133-1.924-1.133-1.924-8.476,2.812,4.707,6,16.553,2.529a5.9,5.9,0,0,1-2.061-1.25Z" transform="translate(-0.208)" fill="#d2ded2"/>
</svg>
