<svg xmlns="http://www.w3.org/2000/svg" width="63.636" height="50" viewBox="0 0 63.636 50">
  <g id="Icon_ionic-logo-javascript" data-name="Icon ionic-logo-javascript" transform="translate(24.75 -2.25)">
    <path id="Path_116" data-name="Path 116" d="M.25,2.813H-11.114V33c0,7.469-2.561,9.554-7.019,9.554a16.979,16.979,0,0,1-5.433-.861l-1.184,8.836a26.943,26.943,0,0,0,7.8,1.15c10.234,0,17.2-4.811,17.2-18.605V2.813Z" transform="translate(0 0.574)" fill="#d2ded2"/>
    <path id="Path_117" data-name="Path 117" d="M8.963,2.25C-2.037,2.25-9,8.5-9,16.761-9,23.875-3.638,28.329,4.159,31.2c5.639,2.011,7.868,3.808,7.868,6.753,0,3.232-2.577,5.316-7.45,5.316a24.638,24.638,0,0,1-11.42-3.019v0L-9,49.228A28.168,28.168,0,0,0,3.95,52.247c12.882,0,18.868-6.9,18.868-15.014,0-6.9-3.829-11.349-12.113-14.512C4.577,20.28,2,18.916,2,15.827c0-2.443,2.228-4.669,6.824-4.669a19.652,19.652,0,0,1,9.447,2.456l2.717-9.091A29.261,29.261,0,0,0,8.963,2.25Z" transform="translate(16.068 0)" fill="#d2ded2"/>
  </g>
</svg>
