<svg xmlns="http://www.w3.org/2000/svg" width="50.25" height="50" viewBox="0 0 50.25 50">
  <path id="Icon_simple-python" data-name="Icon simple-python" d="M29.813.375l1.875.417,1.521.542,1.229.625.937.667.708.708.521.708.333.688.208.625.083.542.042.417-.021.271V17.708l-.1,1.313-.271,1.146-.437.958-.542.792-.625.646-.687.521-.729.4-.729.292-.687.208-.625.146-.542.083-.437.042H18.4l-1.437.1-1.229.292-1.042.458-.854.563-.687.667-.562.729-.417.75-.313.771-.208.729-.146.667-.083.563-.042.438v6.375H6.729l-.437-.062-.583-.146-.667-.25-.729-.375-.75-.542-.75-.75-.729-.958-.667-1.229L.833,31.521.4,29.687.1,27.5,0,24.937.125,22.4l.333-2.167.5-1.812.667-1.479.75-1.187.833-.917.875-.687.875-.5.833-.333.75-.208.667-.1.5-.021h.333L8.167,13h17V11.271H13l-.021-5.729-.042-.771.1-.708.229-.646.354-.583.521-.542.646-.479.792-.417.917-.375L17.562.708l1.208-.25L20.1.25,21.583.125l1.6-.083L24.937,0l2.646.1,2.229.271ZM16.688,4.5l-.479.688-.167.854.167.854.479.708.688.458.854.188.854-.187.688-.458L20.25,6.9l.167-.854-.167-.854L19.771,4.5l-.687-.458-.854-.188-.854.188Zm27.271,8.229.583.125.667.25.729.375.75.563.75.729.729.979.667,1.229.583,1.521.437,1.833.292,2.167.1,2.563-.125,2.562-.333,2.167-.5,1.792-.667,1.479-.75,1.188-.833.938-.875.688-.875.5-.833.333-.75.188-.667.1-.5.042-.333-.021H25.083v1.708H37.25l.021,5.75.042.75-.1.708-.229.646-.354.6-.521.521-.646.5-.792.417-.917.354-1.062.313-1.208.271-1.333.187-1.479.146-1.6.083L25.312,50l-2.646-.083-2.229-.292-1.875-.417-1.521-.521-1.229-.625-.937-.687-.708-.708-.521-.708-.333-.687-.208-.625-.083-.521-.042-.417L13,43.438V32.313l.1-1.333.271-1.125.437-.958.542-.792.625-.667.688-.5.729-.417.729-.292.688-.208.625-.125.542-.083.437-.042.271-.021H31.854l1.438-.1,1.229-.292,1.042-.437.854-.583.688-.667.563-.729.417-.75.313-.75.208-.729.146-.667.083-.583.042-.437V12.646h4.354l.292.021.438.063ZM30.479,42.417,30,43.1l-.167.854.167.854.479.687.688.479.854.167.854-.167.688-.479.479-.687.167-.854-.167-.854-.479-.688-.687-.479-.854-.167-.854.167Z" fill="#d2ded2"/>
</svg>
