<svg xmlns="http://www.w3.org/2000/svg" width="570.5" height="14.62" viewBox="0 0 570.5 14.62">
  <g id="Group_71" data-name="Group 71" transform="translate(-1025.5 -305.54)">
    <g id="Group_70" data-name="Group 70">
      <path id="Path_70" data-name="Path 70" d="M0,0H269" transform="translate(1025.5 313.5)" fill="none" stroke="#d2ded2" stroke-width="2"/>
      <path id="Path_69" data-name="Path 69" d="M0,0H244.5" transform="translate(1351.5 313.5)" fill="none" stroke="#d2ded2" stroke-width="2"/>
      <path id="Path_68" data-name="Path 68" d="M8.06-.78C4.74-.78,2.2-3.44,2.2-7.08v-.16c0-3.6,2.32-6.3,5.82-6.3s5.8,2.78,5.8,6.26v.16C13.82-3.46,11.48-.78,8.06-.78Zm0,.94A6.965,6.965,0,0,0,14.98-7.1v-.16a6.934,6.934,0,0,0-6.96-7.2A6.957,6.957,0,0,0,1.06-7.22v.16A6.971,6.971,0,0,0,8.06.16ZM17.66,0h1.06V-5.8c0-2.78,1.52-3.72,3.54-3.8v-1a3.729,3.729,0,0,0-3.54,2.34v-2.2H17.66Z" transform="translate(1312 320)" fill="#d2ded2"/>
    </g>
  </g>
</svg>
