<svg id="in-love" xmlns="http://www.w3.org/2000/svg" width="104" height="104" viewBox="0 0 104 104">
  <circle id="Ellipse_21" data-name="Ellipse 21" cx="52" cy="52" r="52" fill="#ffd93b"/>
  <path id="Path_82" data-name="Path 82" d="M149.2,97.2A52,52,0,0,1,56.72,129.845,52,52,0,0,0,129.845,56.72,51.944,51.944,0,0,1,149.2,97.2Z" transform="translate(-45.199 -45.199)" fill="#f4c534"/>
  <path id="Path_83" data-name="Path 83" d="M172.37,308.411c4.57,1.251-2.753,25.548-26.887,25.727-24.135-.179-31.457-24.476-26.887-25.727,3.653-1.8,13.452,8.177,26.887,8.177C159.1,316.585,168.717,306.611,172.37,308.411Z" transform="translate(-93.482 -245.592)" fill="#3e4347"/>
  <path id="Path_84" data-name="Path 84" d="M106.319,159.5a.9.9,0,0,1-1.147.218c-2.925-1.537-14.69-8.125-15.818-14.258A7.13,7.13,0,0,1,102.159,140a7.042,7.042,0,0,1,5.59-5.177,7.117,7.117,0,0,1,8.3,5.72C117.174,146.675,108.506,157.01,106.319,159.5Z" transform="translate(-71.108 -107.344)" fill="#e24b4b"/>
  <path id="Path_85" data-name="Path 85" d="M107.543,168.886c-.5.608-.933,1.1-1.235,1.453a.9.9,0,0,1-1.147.218c-2.925-1.537-14.69-8.125-15.818-14.258a7.091,7.091,0,0,1,4.573-7.995,7.118,7.118,0,0,0-2.038,6.412C92.983,160.761,104.4,167.238,107.543,168.886Z" transform="translate(-71.097 -118.18)" fill="#d03f3f"/>
  <g id="Group_75" data-name="Group 75" transform="translate(37.144 29.755)" opacity="0.2">
    <ellipse id="Ellipse_22" data-name="Ellipse 22" cx="2.818" cy="1.898" rx="2.818" ry="1.898" transform="translate(2.059 6.632) rotate(-111.433)" fill="#fff"/>
  </g>
  <path id="Path_86" data-name="Path 86" d="M294.2,159.5a.9.9,0,0,0,1.147.218c2.925-1.537,14.69-8.125,15.818-14.258a7.13,7.13,0,0,0-12.8-5.46,7.042,7.042,0,0,0-5.59-5.177,7.117,7.117,0,0,0-8.3,5.72C283.341,146.675,292.005,157.01,294.2,159.5Z" transform="translate(-226.606 -107.344)" fill="#e24b4b"/>
  <path id="Path_87" data-name="Path 87" d="M326.672,168.886c.5.608.933,1.1,1.235,1.453a.9.9,0,0,0,1.147.218c2.925-1.537,14.69-8.125,15.818-14.258A7.091,7.091,0,0,0,340.3,148.3a7.119,7.119,0,0,1,2.038,6.412C341.232,160.761,329.811,167.238,326.672,168.886Z" transform="translate(-260.317 -118.18)" fill="#d03f3f"/>
  <g id="Group_76" data-name="Group 76" transform="translate(60.057 29.759)" opacity="0.2">
    <ellipse id="Ellipse_23" data-name="Ellipse 23" cx="1.898" cy="2.818" rx="1.898" ry="2.818" transform="translate(3.533 6.632) rotate(-158.567)" fill="#fff"/>
  </g>
  <path id="Path_88" data-name="Path 88" d="M208.442,398.973a30.807,30.807,0,0,0,12.129-2.467,12.747,12.747,0,0,0-4.023-5.788,5.628,5.628,0,0,0-5.337-.848,11.754,11.754,0,0,1-3.546.536,12.418,12.418,0,0,1-2.824-.331,5.745,5.745,0,0,0-5.483,1.534,12.714,12.714,0,0,0-3.039,4.9A30.789,30.789,0,0,0,208.442,398.973Z" transform="translate(-156.442 -310.427)" fill="#e24b4b"/>
</svg>
