<svg xmlns="http://www.w3.org/2000/svg" xmlns:xlink="http://www.w3.org/1999/xlink" width="746" height="368" viewBox="0 0 746 368">
  <defs>
    <clipPath id="clip-path">
      <rect id="Rectangle_148" data-name="Rectangle 148" width="746" height="368" rx="9" transform="translate(537 298)" fill="#1f211f"/>
    </clipPath>
    <linearGradient id="linear-gradient" x1="0.5" x2="0.5" y2="1" gradientUnits="objectBoundingBox">
      <stop offset="0" stop-color="#7171ff"/>
      <stop offset="1" stop-color="#536772" stop-opacity="0"/>
    </linearGradient>
  </defs>
  <g id="Mask_Group_2" data-name="Mask Group 2" transform="translate(-537 -298)" clip-path="url(#clip-path)">
    <g id="Group_81" data-name="Group 81" transform="matrix(0.921, 0.391, -0.391, 0.921, 518.526, -342.063)">
      <path id="Path_103" data-name="Path 103" d="M562.958,221.961c72.013,8.983,147.2,13.326,204.267,58.158C823.16,324.06,837.916,397.772,868.5,461.991c36.438,76.506,127.547,151.225,94.54,229.272-33.77,79.851-154.781,62.953-233.5,99.294C671.469,817.37,626.207,866.4,562.958,875.97,492.1,886.693,418.8,880.252,355.213,847.2c-70.688-36.738-148.707-86.862-164.843-164.875-15.976-77.24,65.316-138.041,86.475-214.025,22.7-81.524-23-189.008,41.132-244.224,63.438-54.62,161.913-12.481,244.981-2.119" transform="matrix(-1, -0.017, 0.017, -1, 1369.869, 637.5)" opacity="0.7" fill="url(#linear-gradient)"/>
      <path id="Path_104" data-name="Path 104" d="M562.958,221.961c72.013,8.983,147.2,13.326,204.267,58.158C823.16,324.06,837.916,397.772,868.5,461.991c36.438,76.506,127.547,151.225,94.54,229.272-33.77,79.851-154.781,62.953-233.5,99.294C671.469,817.37,626.207,866.4,562.958,875.97,492.1,886.693,418.8,880.252,355.213,847.2c-70.688-36.738-148.707-86.862-164.843-164.875-15.976-77.24,65.316-138.041,86.475-214.025,22.7-81.524-23-189.008,41.132-244.224,63.438-54.62,161.913-12.481,244.981-2.119" transform="translate(80.657 246.063) rotate(-56)" opacity="0.6" fill="url(#linear-gradient)"/>
      <path id="Path_105" data-name="Path 105" d="M562.958,221.961c72.013,8.983,147.2,13.326,204.267,58.158C823.16,324.06,837.916,397.772,868.5,461.991c36.438,76.506,127.547,151.225,94.54,229.272-33.77,79.851-154.781,62.953-233.5,99.294C671.469,817.37,626.207,866.4,562.958,875.97,492.1,886.693,418.8,880.252,355.213,847.2c-70.688-36.738-148.707-86.862-164.843-164.875-15.976-77.24,65.316-138.041,86.475-214.025,22.7-81.524-23-189.008,41.132-244.224,63.438-54.62,161.913-12.481,244.981-2.119" transform="matrix(-0.982, -0.191, 0.191, -0.982, 1334.551, 744.834)" opacity="0.6" fill="url(#linear-gradient)"/>
    </g>
  </g>
</svg>
