<svg id="sad" xmlns="http://www.w3.org/2000/svg" width="104" height="104" viewBox="0 0 104 104">
  <circle id="Ellipse_20" data-name="Ellipse 20" cx="52" cy="52" r="52" fill="#ffd93b"/>
  <path id="Path_76" data-name="Path 76" d="M149.2,97.2A52,52,0,0,1,56.72,129.845,52,52,0,0,0,129.845,56.72,51.944,51.944,0,0,1,149.2,97.2Z" transform="translate(-45.199 -45.199)" fill="#f4c534"/>
  <g id="Group_74" data-name="Group 74" transform="translate(22.245 53.061)">
    <path id="Path_77" data-name="Path 77" d="M210.631,374.179a2.693,2.693,0,0,1-2.707,2.707H182.291a2.707,2.707,0,1,1,0-5.414h25.633A2.71,2.71,0,0,1,210.631,374.179Z" transform="translate(-165.351 -349.078)" fill="#3e4347"/>
    <path id="Path_78" data-name="Path 78" d="M109.979,261.318c1.271-.747,5.031,3.283,10.936,3.5,6.113.228,9.665-4.251,10.936-3.5,1.583.543-.575,10.878-10.936,10.917C110.558,272.2,108.4,261.861,109.979,261.318Z" transform="translate(-109.513 -261.225)" fill="#3e4347"/>
  </g>
  <path id="Path_79" data-name="Path 79" d="M92.659,190.435a2.166,2.166,0,1,1,.689-4.277c12.181,1.956,15.883-6.744,15.918-6.831a2.167,2.167,0,1,1,4.014,1.635C110.837,186.948,103.16,192.122,92.659,190.435Z" transform="translate(-72.386 -141.825)" fill="#e9b02c"/>
  <path id="Path_80" data-name="Path 80" d="M312.555,261.318c-1.271-.747-5.031,3.283-10.936,3.5-6.113.228-9.665-4.251-10.936-3.5-1.583.543.575,10.878,10.936,10.917C311.976,272.2,314.137,261.861,312.555,261.318Z" transform="translate(-231.266 -208.164)" fill="#3e4347"/>
  <path id="Path_81" data-name="Path 81" d="M310.041,180.943a2.167,2.167,0,0,1,4.01-1.645c.162.39,3.884,8.778,15.922,6.844a2.166,2.166,0,1,1,.689,4.277C320.237,192.1,312.5,186.985,310.041,180.943Z" transform="translate(-246.936 -141.81)" fill="#e9b02c"/>
</svg>
