<svg id="verysad" xmlns="http://www.w3.org/2000/svg" width="104" height="104" viewBox="0 0 104 104">
  <circle id="Ellipse_24" data-name="Ellipse 24" cx="52" cy="52" r="52" fill="#ffd93b"/>
  <path id="Path_89" data-name="Path 89" d="M149.2,97.2A52,52,0,0,1,56.72,129.845,52,52,0,0,0,129.845,56.72,51.944,51.944,0,0,1,149.2,97.2Z" transform="translate(-45.199 -45.199)" fill="#f4c534"/>
  <g id="Group_77" data-name="Group 77" transform="translate(21.444 47.326)">
    <path id="Path_90" data-name="Path 90" d="M129.02,236.154c0,5.548-5.255,10.033-11.726,10.033s-11.726-4.485-11.726-10.033a8.079,8.079,0,0,1,.618-3.162c1.534,4.29,5.934,5.756,11.108,5.756s9.578-1.466,11.108-5.756A8.149,8.149,0,0,1,129.02,236.154Z" transform="translate(-105.568 -232.992)" fill="#3e4347"/>
    <path id="Path_91" data-name="Path 91" d="M290.976,236.154c0,5.548,5.255,10.033,11.726,10.033s11.726-4.485,11.726-10.033a8.079,8.079,0,0,0-.617-3.162c-1.534,4.29-5.935,5.756-11.108,5.756s-9.578-1.466-11.109-5.756A8.149,8.149,0,0,0,290.976,236.154Z" transform="translate(-253.315 -232.992)" fill="#3e4347"/>
  </g>
  <g id="Group_78" data-name="Group 78" transform="translate(25.558 30.369)">
    <path id="Path_92" data-name="Path 92" d="M313.081,163.368c-8.249-1.7-13.088-5.171-15.23-10.94a2.167,2.167,0,1,1,4.063-1.508c1.069,2.886,3.406,6.425,12.038,8.2a2.168,2.168,0,0,1-.871,4.248Z" transform="translate(-262.801 -149.508)" fill="#e9b02c"/>
    <path id="Path_93" data-name="Path 93" d="M125.842,161.529a2.166,2.166,0,0,1,1.888-2.411c5.964-.725,10.176-3.627,11.862-8.171a2.167,2.167,0,1,1,4.063,1.508c-2.246,6.051-7.859,10.049-15.4,10.965A2.173,2.173,0,0,1,125.842,161.529Z" transform="translate(-125.826 -149.528)" fill="#e9b02c"/>
  </g>
  <path id="Path_94" data-name="Path 94" d="M196.952,349.443a44.838,44.838,0,0,0-33.923,0c-1.762.64-3.191-1.758-1.979-3.325,5.366-7.033,12.106-11.03,18.928-11.03s13.591,4,18.928,11.03C200.114,347.685,198.684,350.08,196.952,349.443Z" transform="translate(-127.977 -267.023)" fill="#3e4347"/>
</svg>
